PathFileType	4	(X/Y/Z)	/Users/itak/Documents/Research/Walk-IL/dataset/trc/00353_00011.trc
DataRate	CameraRate	NumFrames	NumMarkers	Units	OrigDataRate	OrigDataStartFrame	OrigNumFrames
100.000000	100.000000	4	55	mm	100.000000	252	674
Frame#	Time	RPSI			LPSI			L3			STRN			T10			C7			CLAV			RBAK			LBAK			LSHO			LUPA			LAEL			LAOL			LWTS			LWPS			LFRA			LIFD			LHPS			LHTS			RSHO			RUPA			RAEL			RAOL			RWTS			RWPS			RFRA			RIFD			RHTS			RHPS			RBHD			LFHD			RFHD			LBHD			LHIP			RASI			LASI			LKNE			LTHI			LANK			LTIP			LTOE			LMT1			LMT5			LHEE			RKNE			RANK			RTIP			RTOE			RMT1			RMT5			RHEE			RHIP			RTHI			*53			*54			
		X1	Y1	Z1	X2	Y2	Z2	X3	Y3	Z3	X4	Y4	Z4	X5	Y5	Z5	X6	Y6	Z6	X7	Y7	Z7	X8	Y8	Z8	X9	Y9	Z9	X10	Y10	Z10	X11	Y11	Z11	X12	Y12	Z12	X13	Y13	Z13	X14	Y14	Z14	X15	Y15	Z15	X16	Y16	Z16	X17	Y17	Z17	X18	Y18	Z18	X19	Y19	Z19	X20	Y20	Z20	X21	Y21	Z21	X22	Y22	Z22	X23	Y23	Z23	X24	Y24	Z24	X25	Y25	Z25	X26	Y26	Z26	X27	Y27	Z27	X28	Y28	Z28	X29	Y29	Z29	X30	Y30	Z30	X31	Y31	Z31	X32	Y32	Z32	X33	Y33	Z33	X34	Y34	Z34	X35	Y35	Z35	X36	Y36	Z36	X37	Y37	Z37	X38	Y38	Z38	X39	Y39	Z39	X40	Y40	Z40	X41	Y41	Z41	X42	Y42	Z42	X43	Y43	Z43	X44	Y44	Z44	X45	Y45	Z45	X46	Y46	Z46	X47	Y47	Z47	X48	Y48	Z48	X49	Y49	Z49	X50	Y50	Z50	X51	Y51	Z51	X52	Y52	Z52	X53	Y53	Z53	X54	Y54	Z54	X55	Y55	Z55	

253	2.52	-439.5704650878906	952.365966796875	484.4425354003906	-567.879150390625	968.7952880859375	495.2649230957031	-510.3866577148438	1028.088745117188	492.7886047363281	-514.7286987304688	1196.628295898438	248.9496917724609	-528.8385009765625	1146.542602539062	489.9898681640625	-542.0847778320312	1389.485717773438	431.5379638671875	-517.9691162109375	1325.112670898438	282.0148620605469	-485.2609252929688	1253.077514648438	495.1600952148438	-645.1104125976562	1354.614990234375	434.1080932617188	-687.328857421875	1372.129028320312	342.2579040527344	-771.0075073242188	1262.980834960938	345.2649230957031	-832.3226928710938	1077.189697265625	285.5030517578125	-780.75830078125	1036.311157226562	340.1983947753906	-855.344482421875	877.642822265625	122.2412872314453	-902.2025756835938	860.9425048828125	170.6670989990234	-863.6767578125	984.2302856445312	245.7357177734375	-887.3596801757812	733.3850708007812	65.28457641601562	-914.580322265625	796.3216552734375	149.7893524169922	-894.4411010742188	814.0238647460938	90.859375	-375.5658264160156	1373.057739257812	399.9158020019531	-319.036376953125	1314.96533203125	433.3087463378906	-292.4329223632812	1061.460083007812	513.774658203125	-385.7607727050781	1055.646728515625	512.0006103515625	-284.2979736328125	809.1807861328125	463.721923828125	-243.2290496826172	812.1275634765625	529.041748046875	-273.706787109375	992.1985473632812	516.2085571289062	-273.8859252929688	641.7005615234375	509.96044921875	-258.831787109375	706.8665771484375	476.230712890625	-237.7934722900391	728.0731811523438	539.2646484375	-449.1047668457031	1583.476928710938	397.8069763183594	-538.6638793945312	1604.633544921875	210.4163665771484	-441.2128295898438	1600.40625	235.462646484375	-593.2073364257812	1584.41552734375	388.2059020996094	-686.2069702148438	917.6482543945312	424.5973510742188	-401.5907592773438	928.9765625	291.9158935546875	-641.4826049804688	932.8361206054688	295.9293212890625	-690.38525390625	459.3110046386719	419.4204711914062	-697.5624389648438	598.0645751953125	404.0907592773438	-659.6295166015625	52.10886001586914	574.7967529296875	-690.7582397460938	246.4433898925781	496.2846374511719	-687.3621826171875	41.6037712097168	362.2603149414062	-620.5707397460938	29.81939506530762	409.0250854492188	-719.7855834960938	42.49458312988281	465.7558288574219	-584.4964599609375	44.26922225952148	578.318359375	-433.2561645507812	480.3033142089844	166.5038452148438	-526.0387573242188	75.07346343994141	254.7021484375	-464.3653259277344	360.2984008789062	160.7976379394531	-567.4083251953125	69.13573455810547	62.72573089599609	-612.0123291015625	65.92226409912109	115.3387145996094	-503.9352722167969	52.1673698425293	157.5209655761719	-574.703857421875	88.87065887451172	302.8404541015625	-345.7878723144531	897.1149291992188	388.0437316894531	-363.9071960449219	720.4144287109375	248.342529296875	nan	nan	nan	nan	nan	nan	
254	2.53	-441.1067504882812	951.7664794921875	476.6234436035156	-569.3915405273438	968	487.2529907226562	-511.7683715820312	1027.513061523438	484.7870483398438	-515.5883178710938	1195.308715820312	241.0248565673828	-530.6016845703125	1145.809692382812	482.0189208984375	-543.5841064453125	1388.452758789062	423.0158996582031	-518.8510131835938	1323.84326171875	273.9010620117188	-487.4849853515625	1252.190185546875	487.3674621582031	-646.7325439453125	1353.749877929688	425.316650390625	-688.4901123046875	1371.11572265625	333.2448120117188	-772.1929321289062	1261.949951171875	335.7600402832031	-833.1988525390625	1076.519775390625	274.4071655273438	-781.5201416015625	1035.22998046875	328.9315185546875	-855.3733520507812	880.0548095703125	108.0502166748047	-901.9889526367188	861.9534912109375	156.2117614746094	-864.1500244140625	983.9708251953125	233.3888854980469	-886.9163818359375	737.3211059570312	47.45347595214844	-914.07421875	797.8130493164062	133.7121734619141	-894.2850341796875	817.210693359375	75.2149658203125	-377.0126953125	1371.764038085938	392.5580139160156	-321.0055236816406	1313.543090820312	426.55908203125	-296.8595581054688	1060.254028320312	508.27197265625	-390.0971374511719	1054.577880859375	504.7478942871094	-288.0834045410156	807.7617797851562	459.5691528320312	-248.1209106445312	811.0858764648438	525.5792846679688	-278.2623596191406	991.0510864257812	511.3401794433594	-278.6945190429688	640.5739135742188	507.0655212402344	-262.8373107910156	705.5968017578125	473.1257629394531	-242.9840393066406	727.033203125	536.4330444335938	-450.6053161621094	1581.963500976562	390.419677734375	-538.0411987304688	1603.629516601562	202.0687408447266	-440.9213256835938	1599.220703125	228.2012939453125	-594.5120239257812	1583.165283203125	379.2208862304688	-687.539794921875	916.5078125	416.5710144042969	-402.7427673339844	927.9627075195312	284.2503967285156	-642.648193359375	931.496337890625	288.06494140625	-690.4701538085938	458.7356262207031	416.2509155273438	-697.93359375	597.1461181640625	399.2605285644531	-659.33837890625	52.50544357299805	574.5803833007812	-690.7168579101562	246.3780364990234	494.9028625488281	-687.357421875	41.57762908935547	362.1978454589844	-620.4921264648438	29.7887134552002	409.0226440429688	-719.6698608398438	42.62730026245117	465.60498046875	-584.2125854492188	44.54414367675781	578.1681518554688	-434.5732116699219	477.3930358886719	162.5354614257812	-529.4605712890625	68.29756164550781	223.1634216308594	-465.0673217773438	358.2133178710938	149.4070434570312	-565.2357788085938	74.62562561035156	30.33995246887207	-611.485595703125	67.9918212890625	81.13283538818359	-504.6817626953125	51.37504196166992	125.5536041259766	-579.5645141601562	79.19459533691406	270.7361755371094	-347.0443420410156	896.3834228515625	380.5393981933594	-364.3099670410156	718.5419311523438	242.5702514648438	nan	nan	nan	nan	nan	nan	
255	2.54	-442.4637145996094	950.982421875	468.5838012695312	-570.7057495117188	967.0643920898438	479.0945129394531	-512.7805786132812	1026.78369140625	476.4307861328125	-516.3283081054688	1193.894409179688	233.0140533447266	-532.1458740234375	1144.920288085938	473.9512023925781	-544.98583984375	1387.283935546875	414.5640869140625	-519.60009765625	1322.468139648438	265.74462890625	-489.4828491210938	1251.16357421875	479.4879150390625	-648.1654052734375	1352.731689453125	416.5134582519531	-689.4984130859375	1369.969970703125	324.2376403808594	-773.2147827148438	1260.782470703125	326.2831726074219	-833.7847900390625	1075.621215820312	263.5528564453125	-782.0172729492188	1033.9775390625	317.9288024902344	-854.8325805664062	882.13720703125	94.24734497070312	-901.2545166015625	862.62841796875	142.0577087402344	-864.2960205078125	983.45703125	221.3075103759766	-885.6727294921875	740.9122924804688	30.12151718139648	-912.9420166015625	798.9654541015625	117.988525390625	-893.4498901367188	820.0122680664062	59.97056579589844	-378.28564453125	1370.361694335938	385.086181640625	-322.7805480957031	1311.988647460938	419.6396179199219	-301.1480712890625	1058.869873046875	502.3843688964844	-394.2727355957031	1053.357055664062	497.1626892089844	-291.8528747558594	806.1633911132812	455.0293579101562	-252.9538116455078	809.8869018554688	521.6797485351562	-282.6999816894531	989.7352294921875	506.0642700195312	-283.5475158691406	639.2789916992188	503.8115234375	-266.951171875	704.10302734375	469.7549438476562	-248.1440124511719	725.8443603515625	533.17236328125	-451.9478454589844	1580.322631835938	382.9501037597656	-537.3384399414062	1602.488403320312	193.7146606445312	-440.5537719726562	1597.896118164062	220.9052581787109	-595.6395874023438	1581.786010742188	370.2346801757812	-688.7335205078125	915.3010864257812	408.4922790527344	-403.8000183105469	926.76025390625	276.3894653320312	-643.7176513671875	930.1165771484375	280.0805358886719	-690.5209350585938	458.1630249023438	412.8722839355469	-698.259521484375	596.2095947265625	394.28369140625	-659.0452270507812	52.96271133422852	574.3262329101562	-690.6447143554688	246.3108673095703	493.4161682128906	-687.3720703125	41.54273986816406	362.1204223632812	-620.4376220703125	29.77310371398926	408.996337890625	-719.5792236328125	42.7686767578125	465.4338989257812	-583.899658203125	44.93729782104492	577.9904174804688	-435.9511413574219	474.0196228027344	158.9079284667969	-532.0200805664062	62.63147735595703	191.9080963134766	-465.6199645996094	356.1025390625	138.4535522460938	-562.1571655273438	81.130615234375	-0.8668462634086609	-609.9913330078125	71.27825164794922	47.85443878173828	-504.5085144042969	51.66280364990234	94.271728515625	-583.498779296875	70.73489379882812	238.677978515625	-348.2811584472656	895.3305053710938	372.8650207519531	-364.7916259765625	716.114990234375	236.8836517333984	nan	nan	nan	nan	nan	nan	
256	2.55	-443.6376647949219	949.9951782226562	460.3406066894531	-571.8170776367188	965.9877319335938	470.7916564941406	-513.4057006835938	1025.836181640625	467.6515197753906	-516.9465942382812	1192.388671875	224.9154510498047	-533.4674072265625	1143.855102539062	465.7906494140625	-546.2813720703125	1385.982299804688	406.1820373535156	-520.2156372070312	1320.990844726562	257.5449523925781	-491.2387390136719	1249.97412109375	471.5130615234375	-649.4085083007812	1351.548461914062	407.7065734863281	-690.3471069335938	1368.685546875	315.2482299804688	-774.0628662109375	1259.473022460938	316.824951171875	-834.094970703125	1074.499145507812	252.9198455810547	-782.2841796875	1032.55517578125	307.1794738769531	-853.7304077148438	883.8621826171875	80.83110046386719	-900.0266723632812	862.9680786132812	128.1937255859375	-864.1337890625	982.6868896484375	209.4815521240234	-883.6277465820312	744.0950317382812	13.34157276153564	-911.2122802734375	799.7708740234375	102.6333770751953	-891.9491577148438	822.393310546875	45.12887573242188	-379.3765563964844	1368.845947265625	377.5088500976562	-324.3512573242188	1310.302368164062	412.5555725097656	-305.2658081054688	1057.309204101562	496.1334838867188	-398.26513671875	1051.99560546875	489.2765808105469	-295.5787963867188	804.39404296875	450.0921020507812	-257.7025146484375	808.5170288085938	517.3325805664062	-286.9837036132812	988.2462768554688	500.3916320800781	-288.4270935058594	637.8145141601562	500.145263671875	-271.1359252929688	702.4072265625	466.0450744628906	-253.2522735595703	724.5057373046875	529.4605102539062	-453.1192321777344	1578.571044921875	375.3955993652344	-536.5517578125	1601.211547851562	185.3486938476562	-440.0962524414062	1596.434326171875	213.5681915283203	-596.5924682617188	1580.287841796875	361.2433776855469	-689.779541015625	914.0337524414062	400.3474731445312	-404.7606811523438	925.3563842773438	268.3338928222656	-644.6913452148438	928.6973876953125	271.9608764648438	-690.5787963867188	457.5880737304688	409.2889709472656	-698.5706787109375	595.2650146484375	389.16064453125	-658.7620239257812	53.4853401184082	574.032470703125	-690.562744140625	246.2818756103516	491.8252258300781	-687.4107055664062	41.49692916870117	362.02587890625	-620.3998413085938	29.77233505249023	408.9511108398438	-719.5114135742188	42.91788101196289	465.24609375	-583.5740356445312	45.46967315673828	577.7915649414062	-437.3607177734375	470.2667236328125	155.4229431152344	-533.7059936523438	58.15543746948242	161.2491607666016	-466.0249328613281	354.0776977539062	127.9095230102539	-558.2294921875	88.53288269042969	-30.6563777923584	-607.5674438476562	75.70698547363281	15.80452346801758	-503.4281616210938	53.02166366577148	63.95742034912109	-586.4899291992188	63.58882904052734	207.0065155029297	-349.4659118652344	893.9506225585938	364.9932556152344	-365.3349914550781	713.162109375	231.2442169189453	nan	nan	nan	nan	nan	nan	
